<?xml version="1.0" encoding="UTF-8"?>
<svg id="Layer_2" data-name="Layer 2" xmlns="http://www.w3.org/2000/svg" viewBox="0 0 350 357.16">
  <defs>
    <style>
      .cls-1 {
        fill: #f8bb15;
      }

      .cls-2 {
        fill: #e94435;
      }

      .cls-3 {
        fill: #fff;
      }

      .cls-4 {
        fill: #34a751;
      }

      .cls-5 {
        fill: #547dbe;
      }
    </style>
  </defs>
  <g id="Layer_1-2" data-name="Layer 1">
    <g>
      <path class="cls-3" d="M120.2,9.79C76.66,24.7,39.59,57.26,19.04,98.41c-7.16,14.18-12.38,29.32-15.52,44.88-7.9,38.79-2.39,80.14,15.5,115.47,11.63,23.06,28.3,43.56,48.52,59.63,19.08,15.21,41.31,26.45,64.89,32.72,29.75,7.98,61.42,7.8,91.36,.98,27.06-6.23,52.67-19.16,73.11-38.04,21.61-19.86,37.02-46.02,45.18-74.14,8.9-30.67,10.13-63.41,4.55-94.81-56.02-.03-112.03-.01-168.05,0,0,23.23-.03,46.47,.01,69.69,32.44,0,64.88-.01,97.32,0-3.76,22.26-16.99,42.62-35.75,55.16-11.79,7.93-25.35,13.08-39.32,15.53-14.06,2.4-28.59,2.71-42.62-.13-14.26-2.85-27.88-8.79-39.76-17.17-18.99-13.34-33.49-32.87-40.93-54.84-7.61-22.35-7.67-47.21,.03-69.54,5.34-15.74,14.24-30.27,25.92-42.1,14.41-14.75,33.15-25.3,53.33-29.62,17.28-3.69,35.51-2.99,52.43,2.13,14.38,4.37,27.64,12.25,38.5,22.62,10.98-10.92,21.9-21.89,32.86-32.83,5.75-5.89,11.79-11.52,17.35-17.56-16.64-15.4-36.15-27.78-57.47-35.61-38.38-14.12-81.66-14.42-120.29-1.05Z"/>
      <path class="cls-2" d="M120.2,9.79c38.63-13.37,81.92-13.07,120.29,1.05,21.32,7.83,40.83,20.21,57.47,35.61-5.57,6.05-11.61,11.68-17.35,17.56-10.96,10.94-21.88,21.92-32.86,32.83-10.86-10.37-24.12-18.25-38.5-22.62-16.92-5.12-35.15-5.82-52.43-2.13-20.19,4.32-38.92,14.87-53.33,29.62-11.68,11.83-20.58,26.37-25.92,42.1-19.51-15.14-39.01-30.28-58.53-45.41C39.59,57.26,76.66,24.7,120.2,9.79Z"/>
      <path class="cls-1" d="M3.52,143.29c3.14-15.57,8.36-30.7,15.52-44.88,19.52,15.13,39.02,30.27,58.53,45.41-7.7,22.33-7.64,47.19-.03,69.54-19.5,15.14-38.99,30.29-58.51,45.41C1.12,223.44-4.38,182.08,3.52,143.29Z"/>
      <path class="cls-5" d="M178.58,145.11c56.02,0,112.03-.02,168.05,0,5.58,31.39,4.35,64.14-4.55,94.81-8.16,28.12-23.58,54.28-45.18,74.14-18.89-14.72-37.85-29.37-56.74-44.1,18.76-12.53,31.99-32.89,35.75-55.16-32.43-.01-64.88,0-97.32,0-.04-23.23,0-46.46-.01-69.69Z"/>
      <path class="cls-4" d="M19.01,258.77c19.52-15.12,39.01-30.27,58.51-45.41,7.44,21.97,21.94,41.49,40.93,54.84,11.88,8.38,25.49,14.32,39.76,17.17,14.03,2.84,28.56,2.53,42.62,.13,13.97-2.45,27.52-7.6,39.32-15.53,18.89,14.73,37.85,29.37,56.74,44.1-20.44,18.87-46.05,31.81-73.11,38.04-29.94,6.81-61.61,7-91.36-.98-23.58-6.27-45.81-17.51-64.89-32.72-20.22-16.07-36.89-36.57-48.52-59.63Z"/>
    </g>
  </g>
</svg>